# xmcd
#
# Track frame offsets: 
#        150
#        10525
#        18809
#        27318
#        36153
#        45489
#        53502
#        59427
#        69400
#        80935
#        90408
#        100566
#        111552
#        122820
#        132044
#        140680
#        149618
#        159511
#        168940
#        183496
#        193758
#        204929
#        216424
#        226541
#        239252
#        250370
#        259261
#        267708
#
# Disc length: 3741 seconds
#
# Revision: 0
# Processed by: cddbd v1.5.2PL0 Copyright (c) Steve Scherf et al.
# Submitted via: ExactAudioCopyFreeDBPlugin 1.0
#
DISCID=8c0e9b1c
DTITLE=Johnny Cash [CD2] - Complete Sun and Columbia Singles
DYEAR=2017
DGENRE=Country
TTITLE0=Frankie's Man Johnny
TTITLE1=You Dreamer You
TTITLE2=I Forgot To Remember To Forget
TTITLE3=Katy Too
TTITLE4=I Got Stripes
TTITLE5=Five Feet High And Rising
TTITLE6=You Tell Me
TTITLE7=Goodby Little Darlin'
TTITLE8=Little Drummer Boy
TTITLE9=I'll Remember You
TTITLE10=Straight A's In Love
TTITLE11=I Love You Because
TTITLE12=Seasons Of My Heart
TTITLE13=Smiling Bill Mccall
TTITLE14=Second Honeymoon
TTITLE15=Honky Tonk Girl
TTITLE16=Story Of A Broken Heart
TTITLE17=Down The Steet To 3012
TTITLE18=Going To Memphis
TTITLE19=Loading Coals
TTITLE20=Mean Eyed Cat
TTITLE21=Port Of Lonely Hearts
TTITLE22=Girl In Saskatoon
TTITLE23=Locomotive Man
TTITLE24=Oh Lonesome Me
TTITLE25=Life Goes On
TTITLE26=The Rebel Johnny Uma
TTITLE27=Forty Shades Of Green
EXTD=
EXTT0=
EXTT1=
EXTT2=
EXTT3=
EXTT4=
EXTT5=
EXTT6=
EXTT7=
EXTT8=
EXTT9=
EXTT10=
EXTT11=
EXTT12=
EXTT13=
EXTT14=
EXTT15=
EXTT16=
EXTT17=
EXTT18=
EXTT19=
EXTT20=
EXTT21=
EXTT22=
EXTT23=
EXTT24=
EXTT25=
EXTT26=
EXTT27=
PLAYORDER=
